<?xml version="1.0" standalone="no"?>
<!DOCTYPE svg PUBLIC "-//W3C//DTD SVG 20010904//EN"
 "http://www.w3.org/TR/2001/REC-SVG-20010904/DTD/svg10.dtd">
<svg version="1.0" xmlns="http://www.w3.org/2000/svg"
 width="160.000000pt" height="160.000000pt" viewBox="0 0 160.000000 160.000000"
 preserveAspectRatio="xMidYMid meet">
<metadata>
Created by potrace 1.11, written by Peter Selinger 2001-2013
</metadata>
<g transform="translate(0.000000,160.000000) scale(0.100000,-0.100000)"
fill="#000000" stroke="none">
<path d="M1448 1579 c-2 -7 -18 -14 -34 -15 -16 0 -40 -6 -54 -11 -14 -6 -28
-9 -32 -6 -5 2 -8 -1 -8 -6 0 -6 -8 -11 -18 -11 -10 0 -24 -6 -31 -12 -11 -11
-12 -10 -6 1 5 8 -7 4 -26 -9 -19 -14 -35 -24 -37 -22 -1 1 -16 -5 -32 -13
-17 -9 -30 -12 -30 -8 0 5 -5 0 -11 -10 -6 -9 -14 -15 -18 -12 -5 2 -14 -2
-21 -10 -7 -8 -18 -15 -24 -15 -7 0 -21 -8 -32 -18 -10 -10 -23 -20 -29 -22
-25 -9 -75 -43 -75 -50 0 -5 -8 -11 -17 -14 -10 -3 -30 -16 -44 -28 -54 -46
-84 -68 -92 -68 -4 0 -5 -4 -2 -10 3 -5 2 -10 -4 -10 -5 0 -31 -21 -58 -47
-41 -41 -53 -48 -83 -45 -19 1 -57 4 -85 5 -27 1 -53 6 -57 12 -5 7 -8 6 -8
-1 0 -7 -19 -11 -51 -10 -28 1 -61 -3 -73 -9 -36 -19 -78 -58 -87 -83 -6 -15
-14 -21 -21 -16 -7 4 -10 4 -6 0 7 -9 -38 -96 -56 -108 -7 -5 -6 -8 4 -8 13
-1 13 -2 0 -13 -16 -13 -26 -47 -13 -47 14 1 43 27 43 39 0 7 5 9 10 6 6 -3
10 -2 10 3 0 10 53 36 66 32 4 -1 11 4 15 12 5 7 9 9 9 3 0 -5 15 -11 32 -12
18 -2 34 -7 36 -13 2 -5 8 -10 13 -10 5 0 20 -10 34 -22 26 -22 34 -58 13 -58
-6 0 -9 -3 -5 -6 3 -4 -1 -13 -9 -21 -8 -8 -12 -19 -9 -24 4 -5 1 -9 -5 -9 -7
0 -10 -5 -8 -12 5 -13 -21 -48 -34 -48 -8 0 -38 -22 -70 -52 -10 -10 -18 -16
-18 -13 0 3 -15 -11 -32 -32 -18 -20 -40 -45 -48 -53 -26 -28 -54 -66 -69 -91
-53 -89 -81 -143 -81 -154 0 -8 -4 -16 -9 -19 -10 -7 -20 -53 -13 -61 3 -3 17
8 31 23 14 15 34 34 44 41 15 12 14 7 -5 -28 -12 -22 -26 -41 -30 -41 -5 0 -6
-4 -3 -10 3 -5 1 -10 -5 -10 -6 0 -9 -4 -5 -9 3 -5 1 -12 -5 -16 -5 -3 -10
-15 -10 -26 0 -11 -4 -18 -8 -15 -4 2 -9 -5 -9 -16 -1 -12 -6 -24 -10 -27 -5
-3 -9 -15 -9 -26 0 -11 -5 -19 -10 -18 -6 1 -11 -5 -11 -13 0 -15 28 -19 41
-6 4 4 11 8 14 8 4 1 17 5 29 9 12 4 25 6 29 5 3 -1 12 7 20 17 7 10 14 14 14
9 0 -5 10 -1 22 10 13 12 18 13 13 4 -7 -12 -6 -13 6 -4 26 21 91 55 96 50 3
-2 -5 -9 -16 -16 -12 -6 -19 -15 -17 -19 3 -4 -6 -13 -19 -19 -14 -7 -25 -20
-25 -29 0 -11 3 -14 8 -8 4 6 14 10 22 10 8 0 18 4 22 10 4 5 12 11 18 11 5 1
12 3 15 4 3 1 8 3 13 4 4 1 18 8 32 16 14 8 28 14 32 15 4 0 15 7 25 15 10 9
23 17 28 19 19 6 90 51 80 51 -5 0 7 11 28 25 20 14 37 30 37 36 0 6 4 8 9 4
5 -3 12 4 16 15 4 11 11 18 16 15 5 -4 9 -2 9 4 0 6 11 22 25 36 14 14 23 25
19 25 -5 0 1 7 12 16 10 8 12 12 4 8 -8 -4 -2 6 14 22 15 16 31 29 35 29 15 2
56 18 61 26 3 4 17 10 30 14 22 5 31 -1 59 -36 43 -52 49 -117 17 -164 -11
-16 -25 -33 -31 -37 -6 -5 -6 -8 0 -8 5 0 -1 -7 -13 -16 -12 -8 -22 -19 -22
-24 0 -12 44 -3 48 9 2 6 9 8 17 5 7 -3 16 0 20 5 3 6 11 9 16 6 5 -4 9 -2 9
4 0 6 16 18 35 27 19 9 35 21 35 27 0 6 3 8 6 4 4 -3 26 14 50 39 40 40 52 70
45 108 -1 5 4 13 11 17 7 5 8 9 3 9 -6 0 -10 46 -10 118 l0 118 43 43 c23 23
42 47 42 52 0 6 5 7 10 4 6 -3 10 -2 10 3 0 5 8 18 18 30 43 51 52 62 69 89 9
15 23 32 30 36 7 4 13 13 13 18 0 6 7 17 15 26 8 8 12 19 9 25 -4 6 -2 8 4 4
6 -3 14 4 18 16 4 13 10 25 13 28 15 11 70 118 64 124 -4 3 -1 6 5 6 9 0 29
40 23 48 -2 2 4 13 12 25 12 20 27 63 28 84 0 5 7 19 16 32 11 17 11 21 2 15
-12 -7 -12 -5 -1 9 8 9 11 21 7 27 -3 5 -2 10 2 10 5 0 10 10 11 23 1 12 3 47
5 78 l5 56 -49 -1 c-27 0 -49 -4 -49 -8 0 -10 -23 -6 -31 6 -4 4 -9 2 -11 -5z"/>
</g>
</svg>
